<svg xmlns="http://www.w3.org/2000/svg" width="25.152" height="25.152" viewBox="0 0 25.152 25.152">
  <g id="common_ic_calendar" transform="translate(0)">
    <path id="パス_145" data-name="パス 145" d="M0,0H25.152V25.152H0Z" transform="translate(0)" fill="none"/>
    <path id="パス_146" data-name="パス 146" d="M20.521,3.079H19.492V1H17.434V3.079H7.145V1H5.087V3.079H4.058A2.074,2.074,0,0,0,2,5.157V21.787a2.074,2.074,0,0,0,2.058,2.079H20.521a2.074,2.074,0,0,0,2.058-2.079V5.157A2.074,2.074,0,0,0,20.521,3.079Zm0,18.708H4.058V10.354H20.521Zm0-13.511H4.058V5.157H20.521Z" transform="translate(0.286 0.143)" fill="#0db6c9"/>
  </g>
</svg>
