<svg id="common_ic_info" xmlns="http://www.w3.org/2000/svg" width="28" height="28" viewBox="0 0 28 28">
  <path id="パス_2920" data-name="パス 2920" d="M0,0H28V28H0Z" fill="none"/>
  <path id="パス_2921" data-name="パス 2921" d="M13.667,2A11.667,11.667,0,1,0,25.333,13.667,11.671,11.671,0,0,0,13.667,2Zm1.167,19.833H12.5V19.5h2.333Zm2.415-9.042L16.2,13.865a3.972,3.972,0,0,0-1.365,3.3H12.5v-.583a4.7,4.7,0,0,1,1.365-3.3l1.447-1.47A2.281,2.281,0,0,0,16,10.167a2.333,2.333,0,0,0-4.667,0H9a4.667,4.667,0,0,1,9.333,0A3.712,3.712,0,0,1,17.248,12.792Z" transform="translate(0.333 0.333)" fill="#ffd91a"/>
</svg>
