<svg xmlns="http://www.w3.org/2000/svg" width="24" height="24" viewBox="0 0 24 24">
  <g id="login_ic_reset" transform="translate(-0.412)">
    <rect id="長方形_399" data-name="長方形 399" width="24" height="24" transform="translate(0.412)" fill="none"/>
    <path id="パス_1525" data-name="パス 1525" d="M13,3a9,9,0,0,0-9,9c0,.06.01.12.01.19L2.17,10.35.76,11.76,5,16l4.24-4.24L7.83,10.35,6.01,12.17c0-.06-.01-.11-.01-.17a7.015,7.015,0,1,1,2.12,5.01L6.7,18.42A9,9,0,1,0,13,3Zm2,8V10a2,2,0,0,0-4,0v1a1,1,0,0,0-1,1v3a1,1,0,0,0,1,1h4a1,1,0,0,0,1-1V12A1,1,0,0,0,15,11Zm-1,0H12V10a1,1,0,0,1,2,0Z" fill="#039595"/>
  </g>
</svg>
