<svg id="login_img_image" xmlns="http://www.w3.org/2000/svg" xmlns:xlink="http://www.w3.org/1999/xlink" width="358.924" height="372.477" viewBox="0 0 358.924 372.477">
  <defs>
    <clipPath id="clip-path">
      <rect id="長方形_1026" data-name="長方形 1026" width="358.924" height="372.477" fill="none"/>
    </clipPath>
  </defs>
  <g id="グループ_1140" data-name="グループ 1140" clip-path="url(#clip-path)">
    <path id="パス_3008" data-name="パス 3008" d="M32.947,102.3q1.339-1.985,2.73-3.931A1.832,1.832,0,1,0,32.7,96.24q-1.422,1.987-2.788,4.014a1.832,1.832,0,0,0,3.038,2.049Zm-11.9,20.571q1.746-3.566,3.65-7.037a1.832,1.832,0,1,0-3.213-1.763q-1.944,3.545-3.729,7.187a1.832,1.832,0,0,0,3.291,1.612m-8.954,22.014q1.239-3.776,2.645-7.473a1.832,1.832,0,1,0-3.426-1.3q-1.435,3.776-2.7,7.633a1.833,1.833,0,0,0,3.483,1.142ZM6.265,167.931q.707-3.915,1.587-7.768a1.833,1.833,0,0,0-3.573-.816q-.9,3.935-1.621,7.934a1.833,1.833,0,0,0,3.607.651Zm-2.6,23.63q.163-3.981.506-7.914a1.832,1.832,0,1,0-3.651-.317q-.35,4.015-.518,8.08a1.833,1.833,0,1,0,3.662.151Zm.628,23.76q-.371-3.929-.567-7.907a1.833,1.833,0,0,0-3.661.179q.2,4.061.579,8.073a1.832,1.832,0,1,0,3.649-.345Zm3.863,23.447q-.909-3.844-1.646-7.753a1.833,1.833,0,1,0-3.6.679q.752,3.991,1.682,7.919a1.832,1.832,0,0,0,3.566-.844Zm7.061,22.689q-1.434-3.686-2.7-7.451a1.832,1.832,0,1,0-3.473,1.169q1.294,3.846,2.76,7.611a1.832,1.832,0,1,0,3.415-1.329Z" transform="translate(0 -18.981)" fill="#039595"/>
    <path id="パス_3009" data-name="パス 3009" d="M307.24,400.528q-3.6,1.638-7.287,3.114a1.832,1.832,0,1,0,1.361,3.4q3.765-1.507,7.443-3.181a1.833,1.833,0,1,0-1.517-3.336m20.9-11.3q-3.345,2.119-6.791,4.087a1.833,1.833,0,0,0,1.817,3.183q3.519-2.009,6.935-4.174a1.832,1.832,0,0,0-1.961-3.1Zm19.153-14.065q-3.025,2.557-6.168,4.979a1.832,1.832,0,0,0,2.236,2.9q3.209-2.471,6.3-5.084a1.833,1.833,0,0,0-2.367-2.8Zm17.057-16.549q-2.65,2.949-5.432,5.774a1.832,1.832,0,1,0,2.612,2.571q2.839-2.883,5.547-5.9a1.832,1.832,0,0,0-2.726-2.45Zm14.64-18.721q-2.223,3.286-4.593,6.462a1.833,1.833,0,1,0,2.938,2.191q2.418-3.242,4.69-6.6a1.833,1.833,0,1,0-3.035-2.055m11.939-20.549q-1.753,3.562-3.664,7.03a1.833,1.833,0,1,0,3.211,1.767q1.949-3.54,3.741-7.179a1.832,1.832,0,0,0-3.288-1.618Z" transform="translate(-59.404 -63.284)" fill="#039595"/>
    <path id="パス_3010" data-name="パス 3010" d="M378.068,116.4q.454,1.134.893,2.276a1.833,1.833,0,1,0,3.421-1.316q-.448-1.166-.913-2.324a1.832,1.832,0,1,0-3.4,1.364ZM367.731,95.015q1.963,3.433,3.771,6.964a1.832,1.832,0,1,0,3.262-1.67q-1.846-3.605-3.851-7.111a1.832,1.832,0,1,0-3.182,1.818ZM354.556,75.25q2.417,3.135,4.691,6.385a1.833,1.833,0,0,0,3-2.1q-2.323-3.316-4.791-6.52a1.833,1.833,0,0,0-2.9,2.238ZM338.8,57.465q2.824,2.78,5.521,5.687a1.833,1.833,0,0,0,2.687-2.493q-2.752-2.968-5.638-5.808a1.833,1.833,0,0,0-2.571,2.613ZM320.76,41.99q3.18,2.372,6.247,4.883a1.833,1.833,0,0,0,2.323-2.835q-3.131-2.563-6.38-4.987a1.832,1.832,0,1,0-2.19,2.939ZM300.772,29.126q3.479,1.913,6.859,3.982a1.832,1.832,0,0,0,1.912-3.125q-3.451-2.113-7-4.068a1.833,1.833,0,0,0-1.767,3.211Zm-21.571-10q3.715,1.418,7.345,3a1.832,1.832,0,1,0,1.465-3.359q-3.709-1.616-7.5-3.065A1.832,1.832,0,1,0,279.2,19.13Zm-22.752-6.921q3.882.892,7.7,1.958a1.833,1.833,0,0,0,.985-3.53q-3.894-1.088-7.86-2a1.832,1.832,0,1,0-.821,3.571M232.982,8.5q3.965.35,7.877.877a1.833,1.833,0,0,0,.49-3.633q-3.995-.537-8.044-.9a1.833,1.833,0,0,0-.323,3.651Zm-23.761-.481q3.941-.186,7.926-.2a1.833,1.833,0,0,0-.009-3.665q-4.068.008-8.091.2a1.832,1.832,0,1,0,.174,3.66Z" transform="translate(-41.214 -0.826)" fill="#039595"/>
    <path id="パス_3011" data-name="パス 3011" d="M316.538,192.632A128.247,128.247,0,1,1,188.291,64.385,128.247,128.247,0,0,1,316.538,192.632" transform="translate(-11.937 -12.8)" fill="#a4edf5"/>
    <path id="パス_3012" data-name="パス 3012" d="M31.612,162.324H42.435v.5a20.845,20.845,0,0,1,20.8-15.751c1.974.055,8.805.47,10.448.667l54.31,6.49a15.2,15.2,0,0,1,13.173,15.126c-.042.349-.111.689-.179,1.028l9.575-6.424,23.325-15.647c9.81-6.581,16.946,4.886,16.946,4.886s7.731,11.068-3.624,18.686l-46.184,30.982a13.617,13.617,0,0,1-8.769,2.883H23.849" transform="translate(-4.741 -29.081)" fill="#fff"/>
    <path id="パス_3013" data-name="パス 3013" d="M31.157,163.7H41.98V161.87H40.147v.5a1.833,1.833,0,0,0,3.613.435A19.011,19.011,0,0,1,62.2,148.442q.268,0,.536.007h.052v-1.832l-.051,1.832c.932.026,3.141.143,5.285.277,1.074.067,2.138.139,3.03.206s1.62.13,1.966.171l54.311,6.49a13.164,13.164,0,0,1,8.187,4.37,12.956,12.956,0,0,1,3.376,8.552c0,.109,0,.223,0,.34v.045h1.832l-1.82-.223c-.03.258-.087.55-.156.886a1.833,1.833,0,0,0,2.817,1.886l9.575-6.423,23.326-15.648a9.033,9.033,0,0,1,5.092-1.727,8.2,8.2,0,0,1,3.637.894,14.289,14.289,0,0,1,4.13,3.236,17.613,17.613,0,0,1,1.146,1.4c.129.176.225.316.286.408l.066.1.013.02.16-.1-.161.1v0l.16-.1-.161.1.054.082.935-.654-.938.649,0,0,.935-.654-.938.649.022.033a14.068,14.068,0,0,1,1.218,2.377,12.986,12.986,0,0,1,1,4.8,9.254,9.254,0,0,1-1.08,4.406,12.666,12.666,0,0,1-4.3,4.5l-46.183,30.982-.106.077a11.783,11.783,0,0,1-7.26,2.5c-.11,0-.221,0-.333,0H23.394a1.832,1.832,0,0,0,0,3.665H131.8v-1.832l-.05,1.832c.143,0,.288.006.433.006a15.458,15.458,0,0,0,9.513-3.275l-1.126-1.445,1.021,1.521,46.184-30.982a16.323,16.323,0,0,0,5.5-5.827A12.933,12.933,0,0,0,194.784,161a16.821,16.821,0,0,0-1.434-6.569,16.6,16.6,0,0,0-1.466-2.736l-1.5,1.05,1.556-.969a20.282,20.282,0,0,0-3.289-3.846,16.633,16.633,0,0,0-3.847-2.673,11.862,11.862,0,0,0-5.253-1.269,12.705,12.705,0,0,0-7.134,2.348L149.09,161.983l-9.576,6.424,1.022,1.521,1.8.365c.069-.342.149-.73.2-1.171a1.722,1.722,0,0,0,.014-.222h-1.832l1.832.044c0-.139.006-.282.006-.429a16.611,16.611,0,0,0-4.306-10.992,16.819,16.819,0,0,0-10.487-5.57l-54.31-6.49c-.475-.057-1.212-.119-2.129-.187-1.368-.1-3.1-.214-4.689-.306s-3.011-.163-3.8-.186h-.05v1.833l.051-1.832c-.215-.006-.427-.009-.639-.009a22.677,22.677,0,0,0-22,17.157l1.78.436h1.832v-.5a1.833,1.833,0,0,0-1.832-1.832H31.157a1.832,1.832,0,0,0,0,3.665Z" transform="translate(-4.287 -28.626)" fill="#039595"/>
    <path id="パス_3014" data-name="パス 3014" d="M144.909,157.8a11.788,11.788,0,0,1,10.452,11.562,11.511,11.511,0,0,1-.084,1.38,1.69,1.69,0,0,0-.014.221H157.1l-1.819-.222a11.463,11.463,0,0,1-3.924,7.3,11.982,11.982,0,0,1-9.269,2.834l-35.28-4.216a1.832,1.832,0,1,0-.435,3.639l35.28,4.216a15.866,15.866,0,0,0,1.871.111,15.653,15.653,0,0,0,10.229-3.81,15.132,15.132,0,0,0,5.167-9.63,1.88,1.88,0,0,0,.014-.222H157.1l1.819.221a15.037,15.037,0,0,0,.111-1.822,15.449,15.449,0,0,0-13.681-15.2,1.832,1.832,0,1,0-.435,3.639Z" transform="translate(-20.826 -30.647)" fill="#039595"/>
    <path id="パス_3015" data-name="パス 3015" d="M48.307,156.484a22.423,22.423,0,0,0-2.19,4.032,25.669,25.669,0,0,0-2.138,10.076,23,23,0,0,0,.319,3.829,1.833,1.833,0,0,0,3.614-.611,19.244,19.244,0,0,1-.268-3.218,22.671,22.671,0,0,1,3.1-11.125c.169-.287.308-.5.4-.643l.1-.152.022-.03h0a1.832,1.832,0,1,0-2.964-2.156Z" transform="translate(-8.744 -30.961)" fill="#039595"/>
    <path id="パス_3016" data-name="パス 3016" d="M150.35,170.219l-6.33-.7a10.65,10.65,0,0,0-1.146-.062,10.43,10.43,0,0,0-6.88,2.6,10.221,10.221,0,0,0-3.431,6.546l-.011.153-.147,5.185a1.833,1.833,0,1,0,3.664.1l.147-5.184-1.832-.052,1.82.2a6.551,6.551,0,0,1,2.208-4.2,6.766,6.766,0,0,1,4.461-1.688,6.867,6.867,0,0,1,.744.041l6.331.7a1.833,1.833,0,0,0,.4-3.643Z" transform="translate(-26.323 -33.69)" fill="#039595"/>
    <path id="パス_3017" data-name="パス 3017" d="M216.529,159.962l-4.4,3.806a9.549,9.549,0,0,0-.909,13.539l1.372-1.215h-1.832a1.842,1.842,0,0,0,.565,1.324l3.455,3.308a1.833,1.833,0,0,0,2.535-2.647l-3.455-3.308-1.267,1.324h1.832a1.837,1.837,0,0,0-.46-1.215,5.883,5.883,0,0,1,.562-8.339l4.4-3.806a1.832,1.832,0,0,0-2.4-2.771Z" transform="translate(-41.518 -31.713)" fill="#039595"/>
    <path id="パス_3018" data-name="パス 3018" d="M137.238,37.979H67.386a6.763,6.763,0,0,0-6.763,6.763v57.79a6.763,6.763,0,0,0,6.763,6.764H99.707L144,51.007V44.742a6.763,6.763,0,0,0-6.764-6.763" transform="translate(-12.052 -7.551)" fill="#d0fdff"/>
    <path id="パス_3019" data-name="パス 3019" d="M136.783,37.524V35.692H66.931a8.6,8.6,0,0,0-8.6,8.6v57.79a8.6,8.6,0,0,0,8.6,8.6H99.252a1.825,1.825,0,0,0,1.459-.723l44.295-58.288a1.842,1.842,0,0,0,.373-1.109V44.287a8.6,8.6,0,0,0-8.6-8.6v3.665a4.931,4.931,0,0,1,4.931,4.931v5.648L98.342,107.008H66.931A4.931,4.931,0,0,1,62,102.077V44.287a4.931,4.931,0,0,1,4.931-4.931h69.852Z" transform="translate(-11.598 -7.096)" fill="#039595"/>
    <path id="パス_3020" data-name="パス 3020" d="M92.221,62.848A9.12,9.12,0,1,1,83.1,53.729a9.119,9.119,0,0,1,9.119,9.119" transform="translate(-14.708 -10.682)" fill="#fff"/>
    <path id="パス_3021" data-name="パス 3021" d="M91.766,62.393H89.934A7.287,7.287,0,1,1,87.8,57.241a7.26,7.26,0,0,1,2.134,5.152H93.6A10.952,10.952,0,1,0,82.647,73.346,10.953,10.953,0,0,0,93.6,62.393Z" transform="translate(-14.254 -10.227)" fill="#039595"/>
    <path id="パス_3022" data-name="パス 3022" d="M99.228,91.588a11.67,11.67,0,0,1-16.5,0,11.67,11.67,0,0,0-16.5,0l-5.6,5.6v15.325a6.764,6.764,0,0,0,6.764,6.764h32.2Z" transform="translate(-12.052 -17.529)" fill="#fff"/>
    <path id="パス_3023" data-name="パス 3023" d="M98.774,91.133l-1.3-1.3a9.839,9.839,0,0,1-13.913,0,13.5,13.5,0,0,0-19.095,0l-5.6,5.6a1.841,1.841,0,0,0-.537,1.3v15.325a8.6,8.6,0,0,0,8.6,8.6h32.2a1.833,1.833,0,0,0,1.832-1.856l-.356-27.686a1.832,1.832,0,0,0-3.128-1.272l1.3,1.3-1.832.023.332,25.83H66.932A4.931,4.931,0,0,1,62,112.056V97.49l5.061-5.062a9.839,9.839,0,0,1,13.913,0,13.5,13.5,0,0,0,19.095,0l-1.3-1.3-1.832.023Z" transform="translate(-11.598 -17.074)" fill="#039595"/>
    <path id="パス_3024" data-name="パス 3024" d="M108.7,103.933a5.341,5.341,0,0,0,5.341,5.341h70.727a5.341,5.341,0,0,0,5.341-5.342l-.018-73.389L163.938,2.288H114.044a5.34,5.34,0,0,0-5.34,5.341v28.51Z" transform="translate(-21.61 -0.455)" fill="#fff"/>
    <path id="パス_3025" data-name="パス 3025" d="M108.243,103.478h-1.832a7.174,7.174,0,0,0,7.173,7.173h70.727a7.175,7.175,0,0,0,7.173-7.173l0-.126,0-.019-1.739.138,1.739-.136v0l-1.739.138,1.739-.136-1.825.143,1.767.478a1.774,1.774,0,0,0,.058-.621l-1.825.143,1.767.478-1.768-.478,1.514,1.031a1.825,1.825,0,0,0,.254-.553l-1.768-.478,1.514,1.031-1.513-1.03,1.137,1.436a1.843,1.843,0,0,0,.377-.405l-1.513-1.03,1.137,1.436a1.827,1.827,0,0,0,.695-1.437l-.017-73.39a1.837,1.837,0,0,0-.488-1.244L164.828.588A1.832,1.832,0,0,0,163.484,0H113.589a7.174,7.174,0,0,0-7.173,7.173v28.51l0,67.794h3.665l.006-67.793V7.174a3.507,3.507,0,0,1,3.508-3.508h49.094L187.8,30.805l.018,72.672h1.832l-1.138-1.437a1.858,1.858,0,0,0-.475.566,1.846,1.846,0,0,0-.216.994l0,.023,1.819-.145-1.822.113,0,.032,1.819-.145-1.822.113,1.826-.114h-1.829l0,.114,1.826-.114h-1.829a3.508,3.508,0,0,1-3.508,3.508H113.584a3.51,3.51,0,0,1-3.508-3.508Z" transform="translate(-21.156 0)" fill="#039595"/>
    <path id="パス_3026" data-name="パス 3026" d="M177.646,2.288V22.652a7.89,7.89,0,0,0,7.89,7.89H203.8Z" transform="translate(-35.318 -0.455)" fill="#d0fdff"/>
    <path id="パス_3027" data-name="パス 3027" d="M177.191,1.833h-1.832V22.2a9.723,9.723,0,0,0,9.722,9.722h18.26a1.833,1.833,0,0,0,1.345-3.077L178.536.588a1.832,1.832,0,0,0-3.177,1.245h1.832l-1.345,1.245,23.3,25.177H185.081a6.059,6.059,0,0,1-6.058-6.058V1.833h-1.832l-1.345,1.245Z" transform="translate(-34.863 0)" fill="#039595"/>
    <path id="パス_3028" data-name="パス 3028" d="M146.673,52.548h-26.7a1.832,1.832,0,1,0,0,3.665h26.7a1.832,1.832,0,0,0,0-3.665" transform="translate(-23.488 -10.447)" fill="#039595"/>
    <path id="パス_3029" data-name="パス 3029" d="M146.673,68.406h-26.7a1.832,1.832,0,1,0,0,3.665h26.7a1.832,1.832,0,0,0,0-3.665" transform="translate(-23.488 -13.6)" fill="#039595"/>
    <path id="パス_3030" data-name="パス 3030" d="M168.845,54.586h42.91a4.155,4.155,0,0,1,4.155,4.155v42.91a4.155,4.155,0,0,1-4.155,4.155h-42.91a4.155,4.155,0,0,1-4.155-4.155V58.741a4.155,4.155,0,0,1,4.155-4.155" transform="translate(-32.742 -10.852)" fill="#fff"/>
    <path id="パス_3031" data-name="パス 3031" d="M168.39,54.131v1.832H211.3a2.322,2.322,0,0,1,2.323,2.323V101.2a2.322,2.322,0,0,1-2.323,2.323H168.39a2.322,2.322,0,0,1-2.323-2.323V58.286a2.322,2.322,0,0,1,2.323-2.323V52.3a5.988,5.988,0,0,0-5.987,5.987V101.2a5.988,5.988,0,0,0,5.987,5.987H211.3a5.988,5.988,0,0,0,5.987-5.987V58.286A5.987,5.987,0,0,0,211.3,52.3H168.39Z" transform="translate(-32.287 -10.398)" fill="#039595"/>
    <path id="パス_3032" data-name="パス 3032" d="M183.792,74.276V92.309a3.6,3.6,0,0,0,5.51,3.042l14.321-9.017a3.6,3.6,0,0,0,0-6.084L189.3,71.233a3.6,3.6,0,0,0-5.51,3.042" transform="translate(-36.54 -14.051)" fill="#d0fdff"/>
    <path id="パス_3033" data-name="パス 3033" d="M183.337,73.821h-1.832V91.854a5.383,5.383,0,0,0,1.666,3.916,5.476,5.476,0,0,0,3.77,1.517,5.391,5.391,0,0,0,2.883-.84l14.32-9.017a5.42,5.42,0,0,0,0-9.185l-14.32-9.017a5.387,5.387,0,0,0-2.883-.84,5.475,5.475,0,0,0-3.77,1.517,5.383,5.383,0,0,0-1.666,3.916h3.665a1.7,1.7,0,0,1,.532-1.266,1.815,1.815,0,0,1,1.239-.5,1.719,1.719,0,0,1,.931.277l14.32,9.017a1.724,1.724,0,0,1,.618.657,1.794,1.794,0,0,1,0,1.669,1.728,1.728,0,0,1-.618.656l-14.32,9.017a1.725,1.725,0,0,1-.931.276,1.813,1.813,0,0,1-1.238-.5,1.7,1.7,0,0,1-.533-1.266V73.821Z" transform="translate(-36.085 -13.596)" fill="#039595"/>
    <path id="パス_3034" data-name="パス 3034" d="M146.673,84.263h-26.7a1.832,1.832,0,1,0,0,3.665h26.7a1.832,1.832,0,1,0,0-3.665" transform="translate(-23.488 -16.752)" fill="#039595"/>
    <path id="パス_3035" data-name="パス 3035" d="M146.673,100.121h-26.7a1.832,1.832,0,1,0,0,3.665h26.7a1.832,1.832,0,1,0,0-3.665" transform="translate(-23.488 -19.905)" fill="#039595"/>
    <path id="パス_3036" data-name="パス 3036" d="M146.673,115.979h-26.7a1.832,1.832,0,1,0,0,3.665h26.7a1.832,1.832,0,0,0,0-3.665" transform="translate(-23.488 -23.058)" fill="#039595"/>
    <path id="パス_3037" data-name="パス 3037" d="M155.712,32.261H127.056a7.528,7.528,0,0,1,0-15.056h28.656" transform="translate(-23.763 -3.421)" fill="#d0fdff"/>
    <path id="パス_3038" data-name="パス 3038" d="M155.257,29.974H126.6a5.7,5.7,0,0,1,0-11.391h28.656a1.832,1.832,0,0,0,0-3.665H126.6a9.36,9.36,0,0,0,0,18.721h28.656a1.832,1.832,0,0,0,0-3.665Z" transform="translate(-23.309 -2.966)" fill="#039595"/>
    <path id="パス_3039" data-name="パス 3039" d="M110.516,358.055a56.506,56.506,0,0,0,9.795-3.021A56.324,56.324,0,1,0,154.9,308.856a56.259,56.259,0,1,0-44.381,49.2" transform="translate(-8.484 -49.053)" fill="#fff"/>
    <path id="パス_3040" data-name="パス 3040" d="M127.647,390.283l7.444-1.8a58.876,58.876,0,1,0,61.1-72.725,6.618,6.618,0,0,0-.873,13.207,45.653,45.653,0,1,1-47.367,56.409l6.813-1.646a3.5,3.5,0,0,0,1.447-6.069l-18.068-15.379a3.5,3.5,0,0,0-5.506,1.331l-9.05,21.933a3.5,3.5,0,0,0,4.059,4.738" transform="translate(-24.517 -62.773)" fill="#d0fdff"/>
    <path id="パス_3041" data-name="パス 3041" d="M127.193,389.828l.43,1.781,7.444-1.8-.43-1.781-1.78.433a60.708,60.708,0,1,0,63-74.987c-.188-.013-.377-.019-.566-.019a8.45,8.45,0,0,0-8.424,7.893v0c-.013.189-.018.378-.018.566a8.45,8.45,0,0,0,7.893,8.425,43.806,43.806,0,1,1-45.467,54.146l-1.779.435.43,1.781,6.813-1.646a5.285,5.285,0,0,0,3.018-1.981,5.4,5.4,0,0,0,1.064-3.22,5.275,5.275,0,0,0-1.878-4.044l-18.068-15.379a5.311,5.311,0,0,0-3.449-1.273,5.371,5.371,0,0,0-2.908.856,5.306,5.306,0,0,0-2.03,2.444l-9.05,21.932a5.3,5.3,0,0,0,1.134,5.781,5.293,5.293,0,0,0,3.774,1.59,5.411,5.411,0,0,0,1.275-.152l-.429-1.782-.429-1.782a1.752,1.752,0,0,1-.416.051,1.622,1.622,0,0,1-1.163-.5,1.631,1.631,0,0,1-.357-1.811l9.05-21.933a1.632,1.632,0,0,1,.63-.763,1.707,1.707,0,0,1,.921-.27,1.629,1.629,0,0,1,1.074.4L154.569,378.6a1.655,1.655,0,0,1,.449.589,1.624,1.624,0,0,1,.14.665,1.74,1.74,0,0,1-.339,1.03,1.606,1.606,0,0,1-.94.609l-6.813,1.646a1.831,1.831,0,0,0-1.349,2.216,47.475,47.475,0,1,0,49.268-58.674,4.786,4.786,0,0,1-4.47-4.768c0-.107,0-.213.011-.32v0a4.777,4.777,0,0,1,4.766-4.471c.107,0,.214,0,.323.011a57.036,57.036,0,1,1-59.2,70.462,1.83,1.83,0,0,0-2.21-1.348l-7.444,1.8Z" transform="translate(-24.062 -62.318)" fill="#039595"/>
    <path id="パス_3042" data-name="パス 3042" d="M163.453,286.721l-7.444,1.8a58.876,58.876,0,1,0-61.1,72.725,6.618,6.618,0,0,0,.873-13.207,45.653,45.653,0,1,1,47.367-56.409l-6.812,1.646a3.5,3.5,0,0,0-1.447,6.069l18.068,15.379a3.5,3.5,0,0,0,5.506-1.331l9.05-21.933a3.5,3.5,0,0,0-4.059-4.738" transform="translate(-7.938 -48.428)" fill="#fff"/>
    <path id="パス_3043" data-name="パス 3043" d="M163,286.267l-.43-1.781-7.445,1.8.431,1.781,1.78-.434a60.708,60.708,0,1,0-63,74.987q.284.019.565.019a8.45,8.45,0,0,0,8.425-7.893c.013-.191.018-.38.018-.564a8.451,8.451,0,0,0-7.893-8.425,43.806,43.806,0,1,1,45.467-54.146l1.78-.435-.43-1.781-6.813,1.646a5.287,5.287,0,0,0-3.019,1.981,5.4,5.4,0,0,0-1.064,3.22,5.272,5.272,0,0,0,1.879,4.044l18.068,15.379a5.307,5.307,0,0,0,3.448,1.273,5.371,5.371,0,0,0,2.908-.856,5.314,5.314,0,0,0,2.03-2.444l9.05-21.933a5.339,5.339,0,0,0-4.908-7.373,5.433,5.433,0,0,0-1.277.154l.433,1.781.432,1.781a1.719,1.719,0,0,1,.413-.051,1.623,1.623,0,0,1,1.163.5,1.635,1.635,0,0,1,.358,1.811l-9.05,21.932a1.635,1.635,0,0,1-.631.764,1.707,1.707,0,0,1-.921.27,1.628,1.628,0,0,1-1.073-.4l-18.068-15.378a1.663,1.663,0,0,1-.449-.589,1.624,1.624,0,0,1-.14-.665,1.74,1.74,0,0,1,.339-1.03,1.611,1.611,0,0,1,.94-.609l6.813-1.646a1.831,1.831,0,0,0,1.35-2.216A47.475,47.475,0,1,0,95.2,349.413a4.786,4.786,0,0,1,4.469,4.768c0,.11,0,.217-.01.323a4.777,4.777,0,0,1-4.767,4.469c-.107,0-.215,0-.323-.01a57.036,57.036,0,1,1,59.2-70.462,1.832,1.832,0,0,0,2.211,1.348l7.444-1.8Z" transform="translate(-7.484 -47.973)" fill="#039595"/>
    <path id="パス_3044" data-name="パス 3044" d="M229.542,381.746l-4.113-.884a1.092,1.092,0,0,1-.85-.973,22,22,0,0,0-.679-3.7,1.089,1.089,0,0,1,.451-1.211l3.534-2.283a2.038,2.038,0,0,0,.6-2.818l-4.261-6.594a2.038,2.038,0,0,0-2.818-.606l-3.534,2.283a1.088,1.088,0,0,1-1.289-.087,22.024,22.024,0,0,0-3.1-2.139,1.091,1.091,0,0,1-.538-1.175l.884-4.113a2.038,2.038,0,0,0-1.564-2.42l-7.676-1.649a2.038,2.038,0,0,0-2.42,1.564l-.884,4.113a1.089,1.089,0,0,1-.973.85,22.147,22.147,0,0,0-3.7.679,1.089,1.089,0,0,1-1.211-.45l-2.283-3.534a2.037,2.037,0,0,0-2.817-.606l-6.595,4.262a2.037,2.037,0,0,0-.6,2.818l2.283,3.533a1.088,1.088,0,0,1-.087,1.289,22.079,22.079,0,0,0-2.14,3.1,1.092,1.092,0,0,1-1.175.538l-4.113-.885a2.038,2.038,0,0,0-2.42,1.565l-1.65,7.675a2.038,2.038,0,0,0,1.564,2.42l4.113.884a1.09,1.09,0,0,1,.85.974,22.085,22.085,0,0,0,.679,3.7,1.089,1.089,0,0,1-.451,1.211l-3.533,2.284a2.037,2.037,0,0,0-.606,2.817l4.262,6.595a2.037,2.037,0,0,0,2.817.6l3.534-2.283a1.088,1.088,0,0,1,1.289.087,22.144,22.144,0,0,0,3.1,2.14,1.089,1.089,0,0,1,.538,1.175l-.884,4.113a2.038,2.038,0,0,0,1.564,2.42l7.676,1.65a2.038,2.038,0,0,0,2.42-1.565l.884-4.112a1.09,1.09,0,0,1,.973-.85,22.136,22.136,0,0,0,3.7-.679,1.089,1.089,0,0,1,1.211.451l2.283,3.533a2.038,2.038,0,0,0,2.818.606L221.2,403.8a2.037,2.037,0,0,0,.606-2.817l-2.284-3.534a1.089,1.089,0,0,1,.087-1.289,22.057,22.057,0,0,0,2.14-3.1,1.089,1.089,0,0,1,1.175-.538l4.113.884a2.038,2.038,0,0,0,2.42-1.564l1.65-7.676a2.038,2.038,0,0,0-1.564-2.42" transform="translate(-34.545 -70.245)" fill="#fff"/>
    <path id="パス_3045" data-name="パス 3045" d="M229.087,381.292l.385-1.791-4.113-.884-.16.745.577-.5a.77.77,0,0,0-.417-.246l-.16.745.577-.5-.536.464.708-.068a.719.719,0,0,0-.172-.4l-.536.464.708-.068a23.935,23.935,0,0,0-.735-4.009v0l-.675.185h.7l-.025-.185-.675.185h-.054l.405.629a.761.761,0,0,0,.349-.629h-.754l.405.629h0l3.534-2.283a3.87,3.87,0,0,0,1.15-5.35l-4.262-6.6a3.87,3.87,0,0,0-5.353-1.149l-3.532,2.283.414.64v-.762a.769.769,0,0,0-.413.122l.413.64v-.044l.459-.555a.72.72,0,0,0-.459-.163v.718l.459-.555,0,0a23.931,23.931,0,0,0-3.354-2.317l-.366.641h.727a.734.734,0,0,0-.361-.641l-.366.641h-.063l.771.17.019-.17h-.79l.771.17,0-.01.884-4.112a3.87,3.87,0,0,0-2.97-4.6l-7.676-1.65a3.926,3.926,0,0,0-.816-.087,3.87,3.87,0,0,0-3.782,3.058l-.884,4.113.747.16-.5-.577a.77.77,0,0,0-.246.417l.747.16-.5-.577.465.536-.068-.708a.707.707,0,0,0-.4.172l.465.536-.068-.708a23.942,23.942,0,0,0-4.01.735l.182.665v-.689l-.182.024.181.665v.065l.629-.406a.758.758,0,0,0-.629-.348v.754l.629-.406-2.284-3.535a3.87,3.87,0,0,0-5.352-1.15l-6.593,4.261a3.867,3.867,0,0,0-1.149,5.353l0,0,2.284,3.534.639-.414h-.762a.768.768,0,0,0,.122.413l.64-.413h-.05l-.554-.455a.72.72,0,0,0-.159.455h.712l-.554-.455,0,0a23.927,23.927,0,0,0-2.318,3.353l.641.367v-.727a.736.736,0,0,0-.641.361l.641.366v.037l.16-.747-.16-.018v.764l.16-.747L177.8,368.4a3.871,3.871,0,0,0-4.6,2.972l-1.649,7.675a3.868,3.868,0,0,0,2.97,4.6l4.113.885.16-.747-.577.5a.776.776,0,0,0,.417.247l.16-.747-.577.5.536-.465-.708.068a.707.707,0,0,0,.172.4l.536-.465-.708.068a23.931,23.931,0,0,0,.735,4.01l.666-.182h-.69l.024.181.666-.181h.062l-.406-.627a.756.756,0,0,0-.345.627h.752l-.406-.627,0,0-3.534,2.284a3.869,3.869,0,0,0-1.149,5.352l4.26,6.593a3.87,3.87,0,0,0,5.35,1.151l3.535-2.284-.414-.642v.764a.78.78,0,0,0,.415-.122l-.415-.642v.049l-.457.554a.72.72,0,0,0,.457.16v-.715l-.457.554a23.865,23.865,0,0,0,3.353,2.316l.366-.641h-.727a.735.735,0,0,0,.361.641l.366-.641h.01l-.721-.151-.016.151h.737l-.721-.151,0-.008-.884,4.113a3.87,3.87,0,0,0,2.97,4.6l7.676,1.65a3.871,3.871,0,0,0,4.6-2.97l.884-4.113-.746-.161.5.578a.772.772,0,0,0,.246-.417l-.746-.16.5.578-.465-.536.068.707a.712.712,0,0,0,.4-.171l-.465-.536.068.707a23.868,23.868,0,0,0,4.01-.735l-.183-.671v.695l.183-.024-.183-.671v-.057l-.627.407a.756.756,0,0,0,.627.345v-.752l-.627.407v0l2.283,3.534a3.871,3.871,0,0,0,5.35,1.151h0l6.594-4.262a3.87,3.87,0,0,0,1.151-5.35L220.606,396l-.642.414h.764a.777.777,0,0,0-.122-.415l-.642.415h.045l.556.46a.716.716,0,0,0,.163-.46h-.719l.556.46,0,0a23.929,23.929,0,0,0,2.318-3.354l-.642-.367v.727a.736.736,0,0,0,.641-.361l-.642-.366v-.034l-.161.745.161.017v-.762l-.161.745,4.114.884a3.87,3.87,0,0,0,4.6-2.97l1.65-7.676a3.87,3.87,0,0,0-.76-3.23,3.866,3.866,0,0,0-2.211-1.368l-.385,1.791-.385,1.791.116.071.046.127,0,.046L227.21,391l-.072.116-.127.046-.045,0-4.113-.885A2.913,2.913,0,0,0,219.7,391.7a20.263,20.263,0,0,1-1.962,2.839l0,0a2.94,2.94,0,0,0-.679,1.877,2.893,2.893,0,0,0,.465,1.576l2.283,3.533.033.11a.2.2,0,0,1-.095.174l-6.594,4.262h0l-.111.034a.2.2,0,0,1-.174-.094l-2.283-3.534,0,0a2.915,2.915,0,0,0-2.448-1.328,2.965,2.965,0,0,0-.784.106,20.27,20.27,0,0,1-3.395.622,2.96,2.96,0,0,0-1.652.705,2.9,2.9,0,0,0-.937,1.585l-.885,4.113-.071.116-.127.046-.044,0-7.676-1.65-.117-.072-.046-.127,0-.043.885-4.114,0-.009a2.9,2.9,0,0,0,.063-.6,2.931,2.931,0,0,0-1.485-2.541,20.237,20.237,0,0,1-2.839-1.962,2.948,2.948,0,0,0-1.876-.677,2.9,2.9,0,0,0-1.575.465l-3.533,2.283-.11.033a.2.2,0,0,1-.174-.093l-4.262-6.595-.034-.11a.2.2,0,0,1,.095-.174l3.533-2.284h0a2.911,2.911,0,0,0,1.328-2.448,2.98,2.98,0,0,0-.1-.783,20.3,20.3,0,0,1-.623-3.4,2.947,2.947,0,0,0-.705-1.652,2.9,2.9,0,0,0-1.584-.938l-4.113-.884-.117-.071-.046-.127,0-.044,1.65-7.677.071-.116.127-.046.045.006,4.113.884a2.9,2.9,0,0,0,.61.065,2.933,2.933,0,0,0,2.541-1.486,20.2,20.2,0,0,1,1.962-2.839l0,0a2.95,2.95,0,0,0,.674-1.872,2.9,2.9,0,0,0-.463-1.574l-2.285-3.535v0l-.032-.108a.2.2,0,0,1,.094-.174l6.595-4.262.11-.033a.2.2,0,0,1,.174.095l2.283,3.533a2.911,2.911,0,0,0,2.45,1.329,2.966,2.966,0,0,0,.782-.1,20.227,20.227,0,0,1,3.4-.623,2.95,2.95,0,0,0,1.652-.705,2.9,2.9,0,0,0,.937-1.585l.885-4.112.07-.116.127-.046.046.006,7.675,1.65.116.071.046.127,0,.047-.884,4.111,0-.01a2.857,2.857,0,0,0-.067.621,2.931,2.931,0,0,0,1.485,2.541,20.238,20.238,0,0,1,2.839,1.962h0a2.939,2.939,0,0,0,1.876.678,2.9,2.9,0,0,0,1.574-.464l3.534-2.284.11-.033a.2.2,0,0,1,.175.094l4.261,6.594.033.11a.2.2,0,0,1-.094.175l-3.533,2.283h0a2.913,2.913,0,0,0-1.331,2.451,2.949,2.949,0,0,0,.107.785v0a20.19,20.19,0,0,1,.622,3.4,2.956,2.956,0,0,0,.706,1.652,2.9,2.9,0,0,0,1.584.937l4.112.884Z" transform="translate(-34.09 -69.79)" fill="#039595"/>
    <path id="パス_3046" data-name="パス 3046" d="M218.594,386.445a11.9,11.9,0,1,1-7.457-11.54,11.911,11.911,0,0,1,7.457,11.54" transform="translate(-38.727 -74.365)" fill="#fff"/>
    <path id="パス_3047" data-name="パス 3047" d="M218.139,385.99l-1.831-.09a10.077,10.077,0,0,1-10.05,9.662,10.3,10.3,0,0,1-3.776-.727,10.074,10.074,0,0,1-6.309-9.274c0-.159,0-.313.012-.465v-.006a10.077,10.077,0,0,1,10.05-9.662,10.309,10.309,0,0,1,3.777.727,10.072,10.072,0,0,1,6.308,9.274c0,.155,0,.315-.011.477V385.9l1.831.09,1.831.084c.01-.213.015-.428.015-.645a13.726,13.726,0,0,0-8.634-12.685,13.972,13.972,0,0,0-5.116-.98,13.742,13.742,0,0,0-13.711,13.147v-.006c-.012.223-.017.442-.017.656a13.725,13.725,0,0,0,8.634,12.685,13.981,13.981,0,0,0,5.116.98,13.742,13.742,0,0,0,13.711-13.147v-.006Z" transform="translate(-38.272 -73.91)" fill="#039595"/>
    <path id="パス_3048" data-name="パス 3048" d="M132.484,308.661l-4.1-.931a1.09,1.09,0,0,1-.839-.984,22.131,22.131,0,0,0-.636-3.71,1.089,1.089,0,0,1,.465-1.206l3.561-2.243a2.039,2.039,0,0,0,.638-2.811l-4.185-6.643a2.037,2.037,0,0,0-2.81-.639l-3.56,2.243a1.089,1.089,0,0,1-1.288-.1,22.09,22.09,0,0,0-3.072-2.175,1.09,1.09,0,0,1-.525-1.182l.931-4.1a2.037,2.037,0,0,0-1.536-2.438L107.869,280a2.038,2.038,0,0,0-2.439,1.537l-.931,4.1a1.091,1.091,0,0,1-.984.839,22.05,22.05,0,0,0-3.71.636,1.09,1.09,0,0,1-1.206-.466l-2.243-3.56a2.038,2.038,0,0,0-2.811-.638L86.9,286.638a2.037,2.037,0,0,0-.638,2.811l2.243,3.56a1.088,1.088,0,0,1-.1,1.288,22.157,22.157,0,0,0-2.175,3.072,1.09,1.09,0,0,1-1.181.525l-4.1-.931A2.037,2.037,0,0,0,78.51,298.5l-1.738,7.656a2.037,2.037,0,0,0,1.536,2.438l4.1.932a1.09,1.09,0,0,1,.839.983,22.058,22.058,0,0,0,.636,3.71,1.089,1.089,0,0,1-.465,1.206l-3.56,2.243a2.037,2.037,0,0,0-.638,2.81l4.185,6.643a2.038,2.038,0,0,0,2.811.638l3.56-2.243a1.089,1.089,0,0,1,1.288.1,22.029,22.029,0,0,0,3.072,2.175,1.09,1.09,0,0,1,.525,1.182l-.931,4.1a2.038,2.038,0,0,0,1.536,2.439l7.656,1.738a2.037,2.037,0,0,0,2.438-1.536l.932-4.1a1.09,1.09,0,0,1,.984-.839,22.052,22.052,0,0,0,3.71-.635,1.088,1.088,0,0,1,1.206.465l2.243,3.56a2.037,2.037,0,0,0,2.811.638l6.643-4.185a2.038,2.038,0,0,0,.638-2.811l-2.243-3.56a1.088,1.088,0,0,1,.1-1.288,22.064,22.064,0,0,0,2.175-3.072,1.091,1.091,0,0,1,1.181-.525l4.1.932a2.038,2.038,0,0,0,2.438-1.537l1.738-7.656a2.038,2.038,0,0,0-1.536-2.438" transform="translate(-15.253 -55.657)" fill="#d0fdff"/>
    <path id="パス_3049" data-name="パス 3049" d="M132.029,308.206l.405-1.787-4.1-.932-.169.744.583-.493a.774.774,0,0,0-.414-.252l-.169.744.583-.493-.542.458.708-.06a.709.709,0,0,0-.167-.4l-.542.458.708-.06a23.877,23.877,0,0,0-.688-4.018l-.672.175h.694l-.022-.175-.672.175h-.059l.4.634a.758.758,0,0,0,.355-.634h-.753l.4.634h0l3.56-2.243a3.871,3.871,0,0,0,1.213-5.337L128.48,288.7a3.869,3.869,0,0,0-5.339-1.211l-3.559,2.242.407.646v-.763a.773.773,0,0,0-.406.117l.406.646v-.046l.465-.55a.72.72,0,0,0-.465-.167v.717l.465-.55a23.908,23.908,0,0,0-3.327-2.356l-.373.636h.727a.734.734,0,0,0-.353-.636l-.373.636h-.069l.774.182.022-.182h-.8l.774.182,0-.013.931-4.1a3.87,3.87,0,0,0-2.917-4.631l-7.656-1.738a3.87,3.87,0,0,0-4.632,2.918l-.931,4.1.744.169-.493-.583a.771.771,0,0,0-.252.414l.744.169-.493-.583.457.542-.059-.709a.707.707,0,0,0-.4.167l.457.542-.059-.709a23.949,23.949,0,0,0-4.019.688l.175.667v-.689l-.174.022.174.667v.066l.635-.4a.762.762,0,0,0-.635-.357v.755l.635-.4,0,0-2.243-3.56a3.87,3.87,0,0,0-5.339-1.211l-6.641,4.184a3.868,3.868,0,0,0-1.211,5.339l0,0,2.243,3.56.645-.407h-.762a.77.77,0,0,0,.117.406l.645-.406H87.1l-.548-.461a.713.713,0,0,0-.165.461H87.1l-.548-.461,0,0a23.829,23.829,0,0,0-2.355,3.327l.635.373v-.726a.732.732,0,0,0-.635.353l.635.373v.04l.17-.747-.17-.019v.766l.17-.747-4.1-.932a3.823,3.823,0,0,0-.859-.1,3.87,3.87,0,0,0-3.773,3.015l-1.738,7.655v0a3.87,3.87,0,0,0,2.916,4.633l4.1.931.169-.744-.583.494a.774.774,0,0,0,.414.251l.169-.744-.583.494.541-.458-.708.06a.715.715,0,0,0,.167.4l.541-.458-.708.06a23.93,23.93,0,0,0,.688,4.018v0l.666-.173h-.688l.022.173.666-.173h.063l-.4-.631a.757.757,0,0,0-.353.631h.752l-.4-.631,0,0-3.56,2.243A3.87,3.87,0,0,0,77.218,321v0l4.185,6.643a3.869,3.869,0,0,0,5.335,1.213l0,0,3.56-2.242-.407-.647v.764a.772.772,0,0,0,.408-.117l-.408-.647v.05l-.462.549a.719.719,0,0,0,.462.165v-.714l-.462.549,0,0a23.9,23.9,0,0,0,3.327,2.356l.373-.636H92.4a.735.735,0,0,0,.353.636l.373-.636h.01l-.719-.159-.017.159h.736l-.719-.159,0-.01-.932,4.1a3.87,3.87,0,0,0,2.918,4.631l7.656,1.738a3.872,3.872,0,0,0,4.631-2.916l.931-4.1-.744-.17.494.583a.77.77,0,0,0,.252-.414l-.745-.169.494.583-.458-.541.06.708a.709.709,0,0,0,.4-.167l-.458-.541.06.708a23.846,23.846,0,0,0,4.018-.688l-.175-.673v.7l.175-.022-.176-.673v-.056l-.631.4a.759.759,0,0,0,.631.353v-.752l-.631.4v0l2.243,3.56a3.869,3.869,0,0,0,5.335,1.213h0l6.643-4.185a3.869,3.869,0,0,0,1.212-5.336l-2.243-3.561-.646.407h.763a.77.77,0,0,0-.117-.407l-.646.407h.043l.551.466a.723.723,0,0,0,.168-.466h-.719l.551.466,0,0a23.913,23.913,0,0,0,2.355-3.327l-.636-.374v.728a.735.735,0,0,0,.637-.354l-.637-.373v-.032l-.168.741.168.018v-.76l-.168.741,4.1.931a3.871,3.871,0,0,0,4.631-2.916l1.738-7.657a3.869,3.869,0,0,0-2.917-4.631l-.405,1.787-.406,1.787.115.072.046.127,0,.048-1.739,7.655-.072.115-.126.046-.048-.006-4.1-.931a2.9,2.9,0,0,0-.643-.072,2.932,2.932,0,0,0-2.525,1.457,20.162,20.162,0,0,1-1.994,2.816l0,0a2.946,2.946,0,0,0-.7,1.9,2.9,2.9,0,0,0,.448,1.547l2.243,3.56.031.107a.2.2,0,0,1-.1.175l-6.643,4.185,0,0-.11.034a.2.2,0,0,1-.175-.1l-2.243-3.56v0a2.916,2.916,0,0,0-2.468-1.356,2.951,2.951,0,0,0-.751.1,20.238,20.238,0,0,1-3.4.582,2.955,2.955,0,0,0-1.66.687,2.9,2.9,0,0,0-.957,1.573l-.931,4.1-.072.115-.127.045-.047-.006-7.656-1.738L95.1,333.2l-.045-.126.006-.046.931-4.1,0-.009a2.917,2.917,0,0,0-1.386-3.158,20.249,20.249,0,0,1-2.817-1.995h0a2.946,2.946,0,0,0-1.9-.7,2.893,2.893,0,0,0-1.546.447l-3.56,2.242,0,0-.111.033a.2.2,0,0,1-.175-.1l-4.185-6.643v0l-.031-.106a.2.2,0,0,1,.1-.175l3.56-2.243,0,0A2.913,2.913,0,0,0,85.3,314.05a2.956,2.956,0,0,0-.1-.748v0a20.193,20.193,0,0,1-.583-3.4,2.955,2.955,0,0,0-.686-1.661,2.9,2.9,0,0,0-1.574-.956l-4.1-.931-.115-.072-.045-.127,0-.046v0l1.738-7.656.072-.115.127-.045.047.006,4.1.931a2.869,2.869,0,0,0,.643.072,2.93,2.93,0,0,0,2.525-1.456,20.264,20.264,0,0,1,1.995-2.817l0,0a2.951,2.951,0,0,0,.7-1.9,2.9,2.9,0,0,0-.445-1.546l-2.243-3.56v0l-.031-.107a.2.2,0,0,1,.1-.175l6.643-4.185.107-.032a.206.206,0,0,1,.176.1l2.243,3.559,0,0a2.912,2.912,0,0,0,2.469,1.36,2.994,2.994,0,0,0,.75-.1,20.2,20.2,0,0,1,3.4-.583,2.954,2.954,0,0,0,1.66-.686,2.9,2.9,0,0,0,.956-1.574l.932-4.1.071-.115.127-.045.048.006,7.655,1.738.115.072.046.127-.006.047-.931,4.1,0-.013a2.868,2.868,0,0,0-.075.655,2.931,2.931,0,0,0,1.457,2.525,20.286,20.286,0,0,1,2.817,1.995,2.938,2.938,0,0,0,1.9.7,2.893,2.893,0,0,0,1.546-.446l3.561-2.243.107-.032a.2.2,0,0,1,.175.1l4.185,6.643.032.107a.2.2,0,0,1-.1.175l-3.56,2.243h0a2.912,2.912,0,0,0-1.36,2.469,2.983,2.983,0,0,0,.1.751,20.224,20.224,0,0,1,.582,3.4,2.955,2.955,0,0,0,.687,1.66,2.9,2.9,0,0,0,1.573.956l4.1.931Z" transform="translate(-14.798 -55.202)" fill="#039595"/>
    <path id="パス_3050" data-name="パス 3050" d="M121.09,309.838a11.9,11.9,0,1,1-10.466-8.9,11.911,11.911,0,0,1,10.466,8.9" transform="translate(-19.416 -59.82)" fill="#fff"/>
    <path id="パス_3051" data-name="パス 3051" d="M120.635,309.383l-1.779.441a10.478,10.478,0,0,1,.312,2.524,10.066,10.066,0,0,1-10.1,10.052c-.29,0-.585-.012-.882-.037a10.056,10.056,0,0,1-8.838-7.518,10.45,10.45,0,0,1-.312-2.524,10.066,10.066,0,0,1,10.1-10.052q.435,0,.883.036a10.058,10.058,0,0,1,8.838,7.518l1.779-.441,1.779-.441a13.724,13.724,0,0,0-12.094-10.288q-.6-.049-1.184-.049a13.732,13.732,0,0,0-13.761,13.717,14.169,14.169,0,0,0,.421,3.407,13.722,13.722,0,0,0,12.094,10.287q.6.049,1.183.049a13.732,13.732,0,0,0,13.761-13.716,14.168,14.168,0,0,0-.42-3.407Z" transform="translate(-18.961 -59.366)" fill="#039595"/>
    <path id="パス_3052" data-name="パス 3052" d="M402.265,207.846A78.836,78.836,0,1,1,323.43,129.01a78.835,78.835,0,0,1,78.836,78.836" transform="translate(-48.628 -25.648)" fill="#fff"/>
    <path id="パス_3053" data-name="パス 3053" d="M281.235,232.664a13.513,13.513,0,1,1-13.5-13.982,13.751,13.751,0,0,1,13.5,13.982" transform="translate(-50.542 -43.476)" fill="#fff"/>
    <path id="パス_3054" data-name="パス 3054" d="M280.78,232.21h-1.832a12.357,12.357,0,0,1-3.441,8.614,11.349,11.349,0,0,1-16.464,0,12.5,12.5,0,0,1,0-17.227,11.349,11.349,0,0,1,16.464,0,12.36,12.36,0,0,1,3.441,8.614h3.665a16.021,16.021,0,0,0-4.47-11.159,15.012,15.012,0,0,0-21.736,0,16.165,16.165,0,0,0,0,22.319,15.012,15.012,0,0,0,21.736,0,16.021,16.021,0,0,0,4.47-11.16Z" transform="translate(-50.088 -43.021)" fill="#039595"/>
    <path id="パス_3055" data-name="パス 3055" d="M290.755,290.806s-1.256-27.148-17.294-27.647c-6.563-.2-12.247-.126-17.012-.034-16.714.325-16.543,27.844-16.543,27.852h0c0,2.46,11.382,4.453,25.424,4.453s25.424-1.993,25.424-4.453l-.025-.171Z" transform="translate(-47.696 -52.293)" fill="#d0fdff"/>
    <path id="パス_3056" data-name="パス 3056" d="M290.3,290.351l1.831-.085a57.856,57.856,0,0,0-2.728-14.139A28.844,28.844,0,0,0,283.832,266a16.038,16.038,0,0,0-4.653-3.6,14.444,14.444,0,0,0-6.115-1.526c-3.063-.1-5.934-.13-8.609-.13-3.1,0-5.934.046-8.5.1a14.769,14.769,0,0,0-6.172,1.424,14.962,14.962,0,0,0-4.145,2.982,22.7,22.7,0,0,0-4.683,7.361,46.044,46.044,0,0,0-2.907,11.684,53.871,53.871,0,0,0-.435,6.2v.058l.523-.007-.523.007.523-.007-.523.007,1.816-.026H237.62v.026l1.816-.026H237.62A2.736,2.736,0,0,0,238,291.9a3.531,3.531,0,0,0,.726.869,6.7,6.7,0,0,0,1.688,1.038,21.68,21.68,0,0,0,4.1,1.264,70.719,70.719,0,0,0,8.932,1.273c3.457.3,7.335.467,11.435.467a111.459,111.459,0,0,0,18.294-1.332A29.043,29.043,0,0,0,289,293.949a7.371,7.371,0,0,0,1.973-1.137,3.58,3.58,0,0,0,.779-.916,2.737,2.737,0,0,0,.378-1.374,2.07,2.07,0,0,0-.019-.264l-.025-.171-1.813.263.007,1.832h.025a1.833,1.833,0,0,0,1.824-1.917l-1.831.085-.007-1.832h-.025a1.834,1.834,0,0,0-1.807,2.1l.025.171,1.814-.263h-.917l-.8-.464a.948.948,0,0,0-.115.464h.916l-.8-.464.357.207-.314-.268-.042.062.357.207-.314-.268.028.023-.027-.025v0l.028.023-.027-.025a2.335,2.335,0,0,1-.586.369,15.985,15.985,0,0,1-3.263,1.05,64.426,64.426,0,0,1-8.533,1.252c-3.4.3-7.269.476-11.369.476a107.953,107.953,0,0,1-17.661-1.277,25.746,25.746,0,0,1-5.064-1.3,3.987,3.987,0,0,1-.991-.535l-.028-.025-.006-.007-.377.337.456-.2a.564.564,0,0,0-.079-.134l-.377.337.456-.2-.887.393h.967a.974.974,0,0,0-.08-.393l-.887.393h.967v-.033c0-.22.009-2.014.272-4.565.388-3.825,1.379-9.36,3.638-13.76a15.776,15.776,0,0,1,4.3-5.444,10.763,10.763,0,0,1,6.532-2.218c2.553-.05,5.361-.1,8.424-.1,2.644,0,5.476.034,8.495.128a10.783,10.783,0,0,1,4.58,1.136,14.6,14.6,0,0,1,5.753,5.751,39.071,39.071,0,0,1,4.334,12.4c.362,1.911.577,3.579.7,4.761.062.591.1,1.061.123,1.38.011.159.019.28.024.36l0,.088v.022l1.831-.085-.007-1.832Z" transform="translate(-47.241 -51.838)" fill="#039595"/>
    <path id="パス_3057" data-name="パス 3057" d="M423.563,232.664a13.513,13.513,0,1,1-13.5-13.982,13.751,13.751,0,0,1,13.5,13.982" transform="translate(-78.838 -43.476)" fill="#fff"/>
    <path id="パス_3058" data-name="パス 3058" d="M423.108,232.21h-1.832a12.357,12.357,0,0,1-3.441,8.614,11.349,11.349,0,0,1-16.464,0,12.5,12.5,0,0,1,0-17.227,11.349,11.349,0,0,1,16.464,0,12.36,12.36,0,0,1,3.441,8.614h3.665a16.021,16.021,0,0,0-4.47-11.159,15.012,15.012,0,0,0-21.735,0,16.165,16.165,0,0,0,0,22.319,15.012,15.012,0,0,0,21.735,0,16.021,16.021,0,0,0,4.47-11.16Z" transform="translate(-78.384 -43.021)" fill="#039595"/>
    <path id="パス_3059" data-name="パス 3059" d="M433.083,290.806s-1.256-27.148-17.294-27.647c-6.563-.2-12.247-.126-17.011-.034-16.715.325-16.544,27.844-16.544,27.852h0c0,2.46,11.383,4.453,25.424,4.453s25.424-1.993,25.424-4.453l-.025-.171Z" transform="translate(-75.992 -52.293)" fill="#fff"/>
    <path id="パス_3060" data-name="パス 3060" d="M432.628,290.351l1.831-.085a57.854,57.854,0,0,0-2.728-14.139A28.845,28.845,0,0,0,426.16,266a16.038,16.038,0,0,0-4.653-3.6,14.444,14.444,0,0,0-6.115-1.526c-3.063-.1-5.934-.13-8.609-.13-3.1,0-5.934.046-8.5.1a14.772,14.772,0,0,0-6.172,1.424,14.978,14.978,0,0,0-4.145,2.982,22.7,22.7,0,0,0-4.683,7.361,46.015,46.015,0,0,0-2.907,11.685,53.87,53.87,0,0,0-.435,6.2v.085l1.2-.034-1.2.033v0l1.2-.034-1.2.033,1.806-.05-1.807.044v.006l1.806-.05-1.807.044,1.828-.045h-1.828v.045l1.828-.045h-1.828a2.737,2.737,0,0,0,.378,1.374,3.531,3.531,0,0,0,.726.869,6.7,6.7,0,0,0,1.688,1.038,21.679,21.679,0,0,0,4.1,1.264,70.718,70.718,0,0,0,8.932,1.273c3.457.3,7.335.467,11.435.467a111.452,111.452,0,0,0,18.294-1.332,29.043,29.043,0,0,0,5.833-1.527,7.371,7.371,0,0,0,1.973-1.137,3.58,3.58,0,0,0,.779-.916,2.736,2.736,0,0,0,.378-1.374,2.07,2.07,0,0,0-.019-.264l-.025-.171-1.813.263.007,1.832h.025a1.833,1.833,0,0,0,1.824-1.917l-1.831.085-.007-1.832H432.6a1.834,1.834,0,0,0-1.807,2.1l.025.171,1.814-.263h-.917l-.8-.464a.948.948,0,0,0-.115.464h.916l-.8-.464.357.207-.314-.268-.042.062.357.207-.314-.268.026.022-.025-.024v0l.026.022-.025-.024a2.337,2.337,0,0,1-.586.369,15.992,15.992,0,0,1-3.262,1.05,64.466,64.466,0,0,1-8.533,1.252c-3.4.3-7.269.476-11.37.476a107.953,107.953,0,0,1-17.661-1.277,25.744,25.744,0,0,1-5.064-1.3,3.988,3.988,0,0,1-.991-.535L383.46,290l-.006-.007-.377.337.456-.2a.565.565,0,0,0-.078-.134l-.377.337.456-.2-.887.393h.967a.974.974,0,0,0-.08-.393l-.887.393h.967v-.052l-.672.019h.673v-.019l-.672.019h.673c0-.22.009-2.014.272-4.565.388-3.824,1.379-9.359,3.638-13.759a15.779,15.779,0,0,1,4.3-5.445,10.763,10.763,0,0,1,6.532-2.218c2.553-.05,5.361-.1,8.424-.1,2.644,0,5.476.034,8.5.128a10.784,10.784,0,0,1,4.58,1.136,14.6,14.6,0,0,1,5.753,5.751,39.071,39.071,0,0,1,4.334,12.4c.362,1.911.577,3.579.7,4.761.062.591.1,1.061.123,1.38.011.159.019.28.024.36l0,.088v.022l1.831-.085-.007-1.832Z" transform="translate(-75.537 -51.838)" fill="#039595"/>
    <path id="パス_3061" data-name="パス 3061" d="M352.8,103.173a13.513,13.513,0,1,1-13.5-13.982,13.75,13.75,0,0,1,13.5,13.982" transform="translate(-64.769 -17.732)" fill="#fff"/>
    <path id="パス_3062" data-name="パス 3062" d="M352.341,102.719h-1.832a12.36,12.36,0,0,1-3.441,8.614,11.349,11.349,0,0,1-16.464,0,12.5,12.5,0,0,1,0-17.227,11.349,11.349,0,0,1,16.464,0,12.36,12.36,0,0,1,3.441,8.614h3.665a16.021,16.021,0,0,0-4.47-11.16,15.014,15.014,0,0,0-21.736,0,16.166,16.166,0,0,0,0,22.32,15.014,15.014,0,0,0,21.736,0,16.021,16.021,0,0,0,4.47-11.16Z" transform="translate(-64.315 -17.277)" fill="#039595"/>
    <path id="パス_3063" data-name="パス 3063" d="M362.316,161.314s-1.256-27.148-17.294-27.647c-6.563-.2-12.247-.126-17.011-.034-16.715.325-16.544,27.844-16.544,27.852h0c0,2.46,11.382,4.453,25.424,4.453s25.424-1.993,25.424-4.453l-.025-.171Z" transform="translate(-61.923 -26.549)" fill="#d0fdff"/>
    <path id="パス_3064" data-name="パス 3064" d="M361.862,160.859l1.831-.085a57.855,57.855,0,0,0-2.728-14.139,28.844,28.844,0,0,0-5.572-10.124,16.028,16.028,0,0,0-4.653-3.6,14.441,14.441,0,0,0-6.115-1.526c-3.062-.1-5.934-.13-8.608-.13-3.1,0-5.934.046-8.5.1a14.772,14.772,0,0,0-6.172,1.424,14.961,14.961,0,0,0-4.145,2.982,22.731,22.731,0,0,0-4.683,7.361,46.044,46.044,0,0,0-2.907,11.684,53.581,53.581,0,0,0-.434,6.2v.058h0l1.744-.025-1.744.022v0l1.744-.025-1.744.022,1.827-.023h-1.827v.023l1.827-.023h-1.827a2.736,2.736,0,0,0,.378,1.374,3.53,3.53,0,0,0,.726.869,6.684,6.684,0,0,0,1.689,1.038,21.659,21.659,0,0,0,4.1,1.264A70.74,70.74,0,0,0,325,166.848c3.456.3,7.334.467,11.434.467a111.448,111.448,0,0,0,18.294-1.332,29.045,29.045,0,0,0,5.833-1.527,7.373,7.373,0,0,0,1.973-1.137,3.579,3.579,0,0,0,.779-.916,2.736,2.736,0,0,0,.378-1.374,2.174,2.174,0,0,0-.018-.261l-.025-.171-1.814.261.009,1.832h.025a1.833,1.833,0,0,0,1.822-1.917l-1.831.085-.009-1.832h-.025a1.833,1.833,0,0,0-1.805,2.094l.025.171,1.814-.261h-.917l-.8-.464a.951.951,0,0,0-.115.464h.915l-.8-.464.357.207-.314-.268-.042.062.357.207-.314-.268.028.023-.027-.025v0l.028.023-.027-.025a2.336,2.336,0,0,1-.586.369,15.992,15.992,0,0,1-3.262,1.05,64.471,64.471,0,0,1-8.533,1.252c-3.4.3-7.269.476-11.37.476a107.952,107.952,0,0,1-17.661-1.277,25.7,25.7,0,0,1-5.064-1.3,4,4,0,0,1-.991-.535l-.028-.025-.006-.007-.377.336.456-.2a.564.564,0,0,0-.079-.134l-.377.336.456-.2-.886.393h.966a.975.975,0,0,0-.08-.393l-.886.393h.966V161c0-.22.009-2.014.272-4.565.388-3.825,1.379-9.359,3.639-13.76a15.766,15.766,0,0,1,4.3-5.444,10.763,10.763,0,0,1,6.532-2.218c2.553-.05,5.362-.1,8.424-.1,2.644,0,5.475.034,8.494.128a10.784,10.784,0,0,1,4.58,1.136,14.6,14.6,0,0,1,5.753,5.751,39.072,39.072,0,0,1,4.334,12.4c.363,1.911.577,3.579.7,4.761.062.591.1,1.061.123,1.38.011.159.019.28.024.36l0,.088v.022l1.831-.085-.009-1.832Z" transform="translate(-61.468 -26.094)" fill="#039595"/>
    <path id="パス_3065" data-name="パス 3065" d="M392.043,143.953A77.259,77.259,0,0,1,423.8,180.262a76.129,76.129,0,0,1,3.307,9.527,1.833,1.833,0,0,0,3.535-.971A80.84,80.84,0,0,0,393.91,140.8a1.832,1.832,0,0,0-1.867,3.153Z" transform="translate(-77.763 -27.942)" fill="#039595"/>
    <path id="パス_3066" data-name="パス 3066" d="M249.706,190.784a76.277,76.277,0,0,1,3.484-10.182,77.26,77.26,0,0,1,29.58-34.97,1.832,1.832,0,1,0-1.971-3.089,80.921,80.921,0,0,0-30.984,36.631,80.016,80.016,0,0,0-3.651,10.67,1.833,1.833,0,1,0,3.543.939Z" transform="translate(-48.927 -28.282)" fill="#039595"/>
    <path id="パス_3067" data-name="パス 3067" d="M365.311,315.938a77.2,77.2,0,0,1-59.891,0,1.832,1.832,0,0,0-1.427,3.375,80.852,80.852,0,0,0,62.746,0,1.832,1.832,0,1,0-1.428-3.375Z" transform="translate(-60.214 -62.783)" fill="#039595"/>
    <path id="パス_3068" data-name="パス 3068" d="M361.187,210.714h0a6.835,6.835,0,0,0-9.666,0l-21.315,21.315-7.917-7.916a6.835,6.835,0,0,0-9.666,9.665l12.17,12.169a8.5,8.5,0,0,0,10.826,0l25.568-25.567a6.836,6.836,0,0,0,0-9.666" transform="translate(-61.755 -41.494)" fill="#d0fdff"/>
    <path id="パス_3069" data-name="パス 3069" d="M360.733,210.259l1.3-1.3a8.665,8.665,0,0,0-12.258,0l-20.019,20.019-6.621-6.62a8.667,8.667,0,0,0-12.258,12.257l12.171,12.17a8.591,8.591,0,0,0,6.1,2.509c.254,0,.508-.011.76-.033l-.155-1.826-.156,1.826q.38.032.761.033a8.592,8.592,0,0,0,6.1-2.509l25.568-25.567a8.67,8.67,0,0,0,0-12.258l-1.3,1.3-1.3,1.3a5,5,0,0,1,0,7.075L333.869,244.2a4.917,4.917,0,0,1-3.512,1.435c-.15,0-.3-.006-.449-.018a1.765,1.765,0,0,0-.312,0c-.151.014-.3.02-.449.02a4.918,4.918,0,0,1-3.512-1.436l-12.171-12.169a5,5,0,1,1,7.074-7.074l7.917,7.916a1.832,1.832,0,0,0,2.591,0l21.315-21.315a5,5,0,0,1,7.075,0Z" transform="translate(-61.3 -41.039)" fill="#039595"/>
  </g>
</svg>
