<svg id="menu_4_money" xmlns="http://www.w3.org/2000/svg" width="24" height="24" viewBox="0 0 24 24">
  <g id="グループ_1133" data-name="グループ 1133">
    <rect id="長方形_1011" data-name="長方形 1011" width="24" height="24" fill="none"/>
  </g>
  <g id="グループ_1134" data-name="グループ 1134" transform="translate(1 1)">
    <path id="パス_2984" data-name="パス 2984" d="M12.89,11.1c-1.78-.59-2.64-.96-2.64-1.9,0-1.02,1.11-1.39,1.81-1.39a1.932,1.932,0,0,1,1.9,1.34l1.58-.67A3.407,3.407,0,0,0,13,6.24V5H11V6.26A3.058,3.058,0,0,0,8.51,9.22c0,2.27,2.25,2.91,3.35,3.31,1.58.56,2.28,1.07,2.28,2.03,0,1.13-1.05,1.61-1.98,1.61a2.641,2.641,0,0,1-2.4-2.09l-1.66.67A4.109,4.109,0,0,0,11,17.71V19h2V17.76a3.319,3.319,0,0,0,2.9-3.22C15.9,13.15,15.29,11.93,12.89,11.1ZM3,21H1V15H7v2H4.52A9,9,0,0,0,21,12h2A11,11,0,0,1,3,18.33ZM1,12A11,11,0,0,1,21,5.67V3h2V9H17V7h2.48A9,9,0,0,0,3,12Z" transform="translate(-1 -1)" fill="#4dc9c6"/>
  </g>
</svg>
