<svg id="menu_3_plan" xmlns="http://www.w3.org/2000/svg" width="24" height="24" viewBox="0 0 24 24">
  <path id="パス_3002" data-name="パス 3002" d="M0,0H24V24H0Z" fill="none"/>
  <path id="パス_3003" data-name="パス 3003" d="M17.15,3H5.358A2.365,2.365,0,0,0,3,5.358V21.866a2.365,2.365,0,0,0,2.358,2.358H21.866a2.365,2.365,0,0,0,2.358-2.358V10.075ZM5.358,21.866V5.358H15.971v5.9h5.9V21.866Z" transform="translate(-1.612 -1.612)" fill="#256CBE"/>
  <path id="パス_3004" data-name="パス 3004" d="M18.551,11.748H13.189v1.141h5.362Zm0,3.537H13.189v1.141h5.362Zm0,1.825H13.189v1.141h5.362ZM8.625,14.144,6.8,12.319l.685-.685,1.141,1.141,2.168-2.168.685.685L8.625,14.258Zm0-4.107L6.8,8.211l.685-.685L8.625,8.668,10.793,6.5l.685.685L8.625,10.151Zm0,8.215L6.8,16.426l.685-.685,1.141,1.141,2.168-2.168.685.685L8.625,18.365Z" transform="translate(-0.726 -0.733)" fill="#256CBE"/>
</svg>
