<svg id="menu_2_office" xmlns="http://www.w3.org/2000/svg" width="18.75" height="20" viewBox="0 0 18.75 20">
  <path id="パス_2884" data-name="パス 2884" d="M6,1h6V8a.5.5,0,0,1-.757.429L9,7.083,6.757,8.43A.5.5,0,0,1,6,8Z" transform="translate(2.5)" fill="#509cf3" fill-rule="evenodd"/>
  <path id="パス_2885" data-name="パス 2885" d="M3.536,0H16.214A2.518,2.518,0,0,1,18.75,2.5v15A2.518,2.518,0,0,1,16.214,20H3.536A2.518,2.518,0,0,1,1,17.5V16.25H2.268V17.5a1.259,1.259,0,0,0,1.268,1.25H16.214a1.259,1.259,0,0,0,1.268-1.25V2.5a1.259,1.259,0,0,0-1.268-1.25H3.536A1.259,1.259,0,0,0,2.268,2.5V3.75H1V2.5A2.518,2.518,0,0,1,3.536,0" transform="translate(0 0)" fill="#509cf3"/>
  <path id="パス_2886" data-name="パス 2886" d="M1,5V4.5a.5.5,0,0,1,1,0V5h.5a.5.5,0,0,1,0,1H.5a.5.5,0,0,1,0-1ZM1,8V7.5a.5.5,0,0,1,1,0V8h.5a.5.5,0,0,1,0,1H.5a.5.5,0,0,1,0-1Zm0,3v-.5a.5.5,0,0,1,1,0V11h.5a.5.5,0,0,1,0,1H.5a.5.5,0,0,1,0-1Z" transform="translate(0 2)" fill="#509cf3"/>
</svg>
