<svg id="menu_5_admin" xmlns="http://www.w3.org/2000/svg" width="20" height="20" viewBox="0 0 20 20">
  <path id="パス_2895" data-name="パス 2895" d="M0,0H20V20H0Z" fill="none"/>
  <path id="パス_2896" data-name="パス 2896" d="M20,6.889H16V4.944L14,3H10L8,4.944V6.889H4A1.979,1.979,0,0,0,2,8.833v4.861a1.92,1.92,0,0,0,1,1.682v3.179A1.966,1.966,0,0,0,5,20.5H19a1.966,1.966,0,0,0,2-1.944V15.367a1.949,1.949,0,0,0,1-1.672V8.833A1.979,1.979,0,0,0,20,6.889ZM10,4.944h4V6.889H10ZM4,8.833H20v4.861H15V10.778H9v2.917H4Zm9,5.833H11V12.722h2Zm6,3.889H5V15.639H9v.972h6v-.972h4Z" transform="translate(-2 -1.75)" fill="#509cf3"/>
</svg>
