<svg xmlns="http://www.w3.org/2000/svg" width="20" height="20" viewBox="0 0 20 20">
  <path id="menu_1_system" d="M11.756,1.313a1.831,1.831,0,0,0-3.512,0l-.125.425a1.83,1.83,0,0,1-2.631,1.09L5.1,2.615A1.831,1.831,0,0,0,2.616,5.1l.211.389a1.83,1.83,0,0,1-1.09,2.631l-.425.125a1.831,1.831,0,0,0,0,3.512l.425.125a1.83,1.83,0,0,1,1.09,2.631l-.213.388A1.831,1.831,0,0,0,5.1,17.384l.389-.211a1.83,1.83,0,0,1,2.631,1.09l.125.425a1.831,1.831,0,0,0,3.512,0l.125-.425a1.83,1.83,0,0,1,2.631-1.09l.387.213A1.831,1.831,0,0,0,17.384,14.9l-.211-.389a1.83,1.83,0,0,1,1.09-2.631l.425-.125a1.831,1.831,0,0,0,0-3.512l-.425-.125a1.83,1.83,0,0,1-1.09-2.631l.212-.387A1.831,1.831,0,0,0,14.9,2.616l-.389.211a1.83,1.83,0,0,1-2.631-1.09ZM10,13.663A3.663,3.663,0,1,1,13.661,10,3.663,3.663,0,0,1,10,13.663Z" fill="#509cf3"/>
</svg>
