<svg xmlns="http://www.w3.org/2000/svg" width="20.818" height="24" viewBox="0 0 20.818 24">
  <g id="menu_2_office" transform="translate(-33.943 0)">
    <path id="パス_2992" data-name="パス 2992" d="M287.749,4.871A2.516,2.516,0,1,0,284.51,3.4,2.512,2.512,0,0,0,287.749,4.871Z" transform="translate(-238.669 0)" fill="#4dc9c6"/>
    <path id="パス_2993" data-name="パス 2993" d="M207.744,137.045V130.3a1.851,1.851,0,0,0-3.7.064v6.083l-4,.73a1.708,1.708,0,0,0-1.547,1.652l.122,6.093a1.289,1.289,0,1,0,2.577.01l.374-4.784h3.444C206.948,140.142,207.75,138.977,207.744,137.045Z" transform="translate(-156.841 -122.46)" fill="#4dc9c6"/>
    <path id="パス_2994" data-name="パス 2994" d="M285.771,232.944a.975.975,0,0,0-1.158.753l-1.041,4.9a3.3,3.3,0,0,1-.3.832,1.625,1.625,0,0,1-.659.674,3.138,3.138,0,0,1-1.279.326c-.154.013-.318.022-.493.023h-2.754a.978.978,0,0,0,.034,1.956h2.74c.216,0,.426-.016.628-.031a5.8,5.8,0,0,0,1.434-.284,3.648,3.648,0,0,0,1.68-1.156,4.63,4.63,0,0,0,.871-1.9l0-.011,1.046-4.93A.975.975,0,0,0,285.771,232.944Z" transform="translate(-231.785 -222.004)" fill="#4dc9c6"/>
    <path id="パス_2995" data-name="パス 2995" d="M42.165,101.775v-1.4H37.11l-1.867-4.7-1.3.516,2.218,5.58Z" transform="translate(0 -91.194)" fill="#4dc9c6"/>
    <path id="パス_2996" data-name="パス 2996" d="M45.768,240.369h-10.1V253.1h1.791V242.321h8.3Z" transform="translate(-1.649 -229.102)" fill="#4dc9c6"/>
  </g>
</svg>
