<svg xmlns="http://www.w3.org/2000/svg" width="24" height="20.127" viewBox="0 0 24 20.127">
  <g id="menu_6_member" transform="translate(0 -41.311)">
    <path id="パス_2985" data-name="パス 2985" d="M28.98,141.483a2.911,2.911,0,0,0-2.572-3.024,2.318,2.318,0,0,1-1.477,0,2.912,2.912,0,0,0-2.572,3.024H28.98Z" transform="translate(-21.311 -92.594)" fill="#256CBE"/>
    <path id="パス_2986" data-name="パス 2986" d="M56.139,45.449a1.812,1.812,0,0,0,1.812-1.812v-.514a1.812,1.812,0,1,0-3.624,0v.514A1.812,1.812,0,0,0,56.139,45.449Z" transform="translate(-51.78)" fill="#256CBE"/>
    <path id="パス_2987" data-name="パス 2987" d="M191.994,141.483a2.911,2.911,0,0,0-2.572-3.024,2.318,2.318,0,0,1-1.477,0,2.912,2.912,0,0,0-2.572,3.024h6.621Z" transform="translate(-176.684 -92.594)" fill="#256CBE"/>
    <path id="パス_2988" data-name="パス 2988" d="M219.162,45.449a1.812,1.812,0,0,0,1.812-1.812v-.514a1.812,1.812,0,1,0-3.624,0v.514A1.811,1.811,0,0,0,219.162,45.449Z" transform="translate(-207.162)" fill="#256CBE"/>
    <path id="パス_2989" data-name="パス 2989" d="M355.017,141.483a2.912,2.912,0,0,0-2.573-3.024,2.317,2.317,0,0,1-1.477,0,2.911,2.911,0,0,0-2.572,3.024h6.621Z" transform="translate(-332.065 -92.594)" fill="#256CBE"/>
    <path id="パス_2990" data-name="パス 2990" d="M382.174,45.449a1.812,1.812,0,0,0,1.812-1.812v-.514a1.812,1.812,0,1,0-3.624,0v.514A1.812,1.812,0,0,0,382.174,45.449Z" transform="translate(-362.533)" fill="#256CBE"/>
    <path id="パス_2991" data-name="パス 2991" d="M24,230.24H0v1.7H.736v9.573H23.264v-9.573H24Z" transform="translate(0 -180.073)" fill="#256CBE"/>
  </g>
</svg>
