<svg xmlns="http://www.w3.org/2000/svg" xmlns:xlink="http://www.w3.org/1999/xlink" width="24" height="22.952" viewBox="0 0 24 22.952">
  <defs>
    <clipPath id="clip-path">
      <rect id="長方形_1015" data-name="長方形 1015" width="24" height="22.952" transform="translate(0 0)" fill="#4dc9c6"/>
    </clipPath>
  </defs>
  <g id="menu_5_result" transform="translate(0 0)">
    <g id="グループ_1135" data-name="グループ 1135" transform="translate(0 0)" clip-path="url(#clip-path)">
      <path id="パス_3005" data-name="パス 3005" d="M16.255,6.693l6.663,1.1a1.291,1.291,0,0,1,.709,2.18l-4.742,4.81,1.009,6.678a1.291,1.291,0,0,1-1.855,1.347L12,19.789,5.96,22.812a1.291,1.291,0,0,1-1.855-1.347l1.009-6.678L.373,9.977A1.291,1.291,0,0,1,1.082,7.8l6.663-1.1,3.109-6a1.291,1.291,0,0,1,2.292,0Z" transform="translate(0 0)" fill="#4dc9c6"/>
    </g>
  </g>
</svg>
