<svg xmlns="http://www.w3.org/2000/svg" width="24" height="24" viewBox="0 0 24 24">
  <path id="menu_1_system" d="M14.108,1.575a2.2,2.2,0,0,0-4.215,0l-.15.51A2.2,2.2,0,0,1,6.585,3.393L6.12,3.138A2.2,2.2,0,0,0,3.14,6.118l.253.466A2.2,2.2,0,0,1,2.085,9.742l-.51.15a2.2,2.2,0,0,0,0,4.215l.51.15a2.2,2.2,0,0,1,1.308,3.157l-.255.465a2.2,2.2,0,0,0,2.98,2.98l.467-.253a2.2,2.2,0,0,1,3.157,1.308l.15.51a2.2,2.2,0,0,0,4.215,0l.15-.51a2.2,2.2,0,0,1,3.158-1.308l.465.255a2.2,2.2,0,0,0,2.981-2.981l-.253-.466a2.2,2.2,0,0,1,1.308-3.158l.51-.15a2.2,2.2,0,0,0,0-4.215l-.51-.15a2.2,2.2,0,0,1-1.308-3.158l.255-.465A2.2,2.2,0,0,0,17.882,3.14l-.466.253a2.2,2.2,0,0,1-3.158-1.308ZM12,16.395A4.395,4.395,0,1,1,16.393,12,4.395,4.395,0,0,1,12,16.395Z" fill="#256CBE"/>
</svg>
