<svg xmlns="http://www.w3.org/2000/svg" width="20" height="15" viewBox="0 0 20 15">
  <g id="menu_4_people" transform="translate(0 -2)">
    <path id="パス_2891" data-name="パス 2891" d="M5.5,9A2.5,2.5,0,1,0,3,6.5,2.5,2.5,0,0,0,5.5,9m5-3.125a.625.625,0,0,1,.625-.625h5a.625.625,0,0,1,0,1.25h-5a.625.625,0,0,1-.625-.625M10.5,9a.625.625,0,0,1,.625-.625h5a.625.625,0,0,1,0,1.25h-5A.625.625,0,0,1,10.5,9m1.25,3.125a.625.625,0,0,1,.625-.625h3.75a.625.625,0,0,1,0,1.25h-3.75a.625.625,0,0,1-.625-.625" transform="translate(0.75 0.5)" fill="#509cf3"/>
    <path id="パス_2892" data-name="パス 2892" d="M2.5,2A2.5,2.5,0,0,0,0,4.5v10A2.5,2.5,0,0,0,2.5,17h15A2.5,2.5,0,0,0,20,14.5V4.5A2.5,2.5,0,0,0,17.5,2ZM1.25,4.5A1.25,1.25,0,0,1,2.5,3.25h15A1.25,1.25,0,0,1,18.75,4.5v10a1.25,1.25,0,0,1-1.25,1.25H11.2a3.873,3.873,0,0,0,.05-.625c0-2.416-2.238-4.375-5-4.375a4.793,4.793,0,0,0-4.98,3.976,1.25,1.25,0,0,1-.02-.226Z" fill="#509cf3"/>
  </g>
</svg>
